<svg width="213" height="29" viewBox="0 0 213 29" fill="none" xmlns="http://www.w3.org/2000/svg">
<path d="M19.584 28C19.32 27.136 19.02 26.248 18.684 25.336C18.372 24.424 18.06 23.512 17.748 22.6H8.028C7.716 23.512 7.392 24.424 7.056 25.336C6.744 26.248 6.456 27.136 6.192 28H0.36C1.296 25.312 2.184 22.828 3.024 20.548C3.864 18.268 4.68 16.12 5.472 14.104C6.288 12.088 7.08 10.18 7.848 8.38C8.64 6.556 9.456 4.78 10.296 3.052H15.66C16.476 4.78 17.28 6.556 18.072 8.38C18.864 10.18 19.656 12.088 20.448 14.104C21.264 16.12 22.092 18.268 22.932 20.548C23.772 22.828 24.66 25.312 25.596 28H19.584ZM12.852 8.704C12.732 9.064 12.552 9.556 12.312 10.18C12.072 10.804 11.796 11.524 11.484 12.34C11.172 13.156 10.824 14.056 10.44 15.04C10.08 16.024 9.708 17.056 9.324 18.136H16.416C16.032 17.056 15.66 16.024 15.3 15.04C14.94 14.056 14.592 13.156 14.256 12.34C13.944 11.524 13.668 10.804 13.428 10.18C13.188 9.556 12.996 9.064 12.852 8.704ZM38.8693 17.956C38.8693 16.228 38.6413 15.004 38.1853 14.284C37.7533 13.564 36.9973 13.204 35.9173 13.204C35.5813 13.204 35.2333 13.228 34.8733 13.276C34.5133 13.3 34.1653 13.336 33.8293 13.384V28H28.4653V9.712C28.9213 9.592 29.4493 9.472 30.0493 9.352C30.6733 9.208 31.3213 9.088 31.9933 8.992C32.6893 8.872 33.3973 8.788 34.1173 8.74C34.8373 8.668 35.5453 8.632 36.2413 8.632C37.6093 8.632 38.7133 8.812 39.5533 9.172C40.4173 9.508 41.1253 9.916 41.6773 10.396C42.4453 9.844 43.3213 9.412 44.3053 9.1C45.3133 8.788 46.2373 8.632 47.0773 8.632C48.5893 8.632 49.8253 8.848 50.7853 9.28C51.7693 9.688 52.5493 10.276 53.1253 11.044C53.7013 11.812 54.0973 12.724 54.3133 13.78C54.5293 14.836 54.6373 16.012 54.6373 17.308V28H49.2733V17.956C49.2733 16.228 49.0453 15.004 48.5893 14.284C48.1573 13.564 47.4013 13.204 46.3213 13.204C46.0333 13.204 45.6253 13.276 45.0973 13.42C44.5933 13.564 44.1733 13.744 43.8373 13.96C44.0053 14.512 44.1133 15.1 44.1613 15.724C44.2093 16.324 44.2333 16.972 44.2333 17.668V28H38.8693V17.956ZM64.8723 28H59.5083V9.064H64.8723V28ZM65.3763 3.592C65.3763 4.576 65.0523 5.356 64.4043 5.932C63.7803 6.484 63.0363 6.76 62.1723 6.76C61.3083 6.76 60.5523 6.484 59.9043 5.932C59.2803 5.356 58.9683 4.576 58.9683 3.592C58.9683 2.608 59.2803 1.84 59.9043 1.288C60.5523 0.711999 61.3083 0.423999 62.1723 0.423999C63.0363 0.423999 63.7803 0.711999 64.4043 1.288C65.0523 1.84 65.3763 2.608 65.3763 3.592ZM69.7345 4.348L75.0985 3.484V9.064H81.5425V13.528H75.0985V20.188C75.0985 21.316 75.2905 22.216 75.6745 22.888C76.0825 23.56 76.8865 23.896 78.0865 23.896C78.6625 23.896 79.2505 23.848 79.8505 23.752C80.4745 23.632 81.0385 23.476 81.5425 23.284L82.2985 27.46C81.6505 27.724 80.9305 27.952 80.1385 28.144C79.3465 28.336 78.3745 28.432 77.2225 28.432C75.7585 28.432 74.5465 28.24 73.5865 27.856C72.6265 27.448 71.8585 26.896 71.2825 26.2C70.7065 25.48 70.2985 24.616 70.0585 23.608C69.8425 22.6 69.7345 21.484 69.7345 20.26V4.348ZM101.723 23.716C102.515 23.716 103.163 23.656 103.667 23.536C104.195 23.392 104.615 23.212 104.927 22.996C105.239 22.756 105.455 22.48 105.575 22.168C105.695 21.856 105.755 21.508 105.755 21.124C105.755 20.308 105.371 19.636 104.603 19.108C103.835 18.556 102.515 17.968 100.643 17.344C99.8271 17.056 99.0111 16.732 98.1951 16.372C97.3791 15.988 96.6471 15.52 95.9991 14.968C95.3511 14.392 94.8231 13.708 94.4151 12.916C94.0071 12.1 93.8031 11.116 93.8031 9.964C93.8031 8.812 94.0191 7.78 94.4511 6.868C94.8831 5.932 95.4951 5.14 96.2871 4.492C97.0791 3.844 98.0391 3.352 99.1671 3.016C100.295 2.656 101.567 2.476 102.983 2.476C104.663 2.476 106.115 2.656 107.339 3.016C108.563 3.376 109.571 3.772 110.363 4.204L108.743 8.632C108.047 8.272 107.267 7.96 106.403 7.696C105.563 7.408 104.543 7.264 103.343 7.264C101.999 7.264 101.027 7.456 100.427 7.84C99.8511 8.2 99.5631 8.764 99.5631 9.532C99.5631 9.988 99.6711 10.372 99.8871 10.684C100.103 10.996 100.403 11.284 100.787 11.548C101.195 11.788 101.651 12.016 102.155 12.232C102.683 12.424 103.259 12.628 103.883 12.844C105.179 13.324 106.307 13.804 107.267 14.284C108.227 14.74 109.019 15.28 109.643 15.904C110.291 16.528 110.771 17.26 111.083 18.1C111.395 18.94 111.551 19.96 111.551 21.16C111.551 23.488 110.735 25.3 109.103 26.596C107.471 27.868 105.011 28.504 101.723 28.504C100.619 28.504 99.6231 28.432 98.7351 28.288C97.8471 28.168 97.0551 28.012 96.3591 27.82C95.6871 27.628 95.0991 27.424 94.5951 27.208C94.1151 26.992 93.7071 26.788 93.3711 26.596L94.9551 22.132C95.6991 22.54 96.6111 22.912 97.6911 23.248C98.7951 23.56 100.139 23.716 101.723 23.716ZM123.17 24.256C123.698 24.256 124.202 24.244 124.682 24.22C125.162 24.196 125.546 24.16 125.834 24.112V20.044C125.618 19.996 125.294 19.948 124.862 19.9C124.43 19.852 124.034 19.828 123.674 19.828C123.17 19.828 122.69 19.864 122.234 19.936C121.802 19.984 121.418 20.092 121.082 20.26C120.746 20.428 120.482 20.656 120.29 20.944C120.098 21.232 120.002 21.592 120.002 22.024C120.002 22.864 120.278 23.452 120.83 23.788C121.406 24.1 122.186 24.256 123.17 24.256ZM122.738 8.56C124.322 8.56 125.642 8.74 126.698 9.1C127.754 9.46 128.594 9.976 129.218 10.648C129.866 11.32 130.322 12.136 130.586 13.096C130.85 14.056 130.982 15.124 130.982 16.3V27.46C130.214 27.628 129.146 27.82 127.778 28.036C126.41 28.276 124.754 28.396 122.81 28.396C121.586 28.396 120.47 28.288 119.462 28.072C118.478 27.856 117.626 27.508 116.906 27.028C116.186 26.524 115.634 25.876 115.25 25.084C114.866 24.292 114.674 23.32 114.674 22.168C114.674 21.064 114.89 20.128 115.322 19.36C115.778 18.592 116.378 17.98 117.122 17.524C117.866 17.068 118.718 16.744 119.678 16.552C120.638 16.336 121.634 16.228 122.666 16.228C123.362 16.228 123.974 16.264 124.502 16.336C125.054 16.384 125.498 16.456 125.834 16.552V16.048C125.834 15.136 125.558 14.404 125.006 13.852C124.454 13.3 123.494 13.024 122.126 13.024C121.214 13.024 120.314 13.096 119.426 13.24C118.538 13.36 117.77 13.54 117.122 13.78L116.438 9.46C116.75 9.364 117.134 9.268 117.59 9.172C118.07 9.052 118.586 8.956 119.138 8.884C119.69 8.788 120.266 8.716 120.866 8.668C121.49 8.596 122.114 8.56 122.738 8.56ZM143.357 14.824L147.101 9.064H152.645L146.165 18.172C147.605 19.972 148.913 21.724 150.089 23.428C151.265 25.132 152.201 26.656 152.897 28H147.137C146.945 27.64 146.705 27.196 146.417 26.668C146.129 26.116 145.805 25.552 145.445 24.976C145.085 24.376 144.701 23.788 144.293 23.212C143.909 22.612 143.525 22.072 143.141 21.592C142.781 22.048 142.409 22.552 142.025 23.104C141.665 23.656 141.317 24.22 140.981 24.796C140.645 25.348 140.309 25.9 139.973 26.452C139.661 27.004 139.385 27.52 139.145 28H133.673C133.961 27.4 134.357 26.692 134.861 25.876C135.365 25.06 135.905 24.22 136.481 23.356C137.081 22.468 137.705 21.592 138.353 20.728C139.001 19.84 139.637 19.012 140.261 18.244C139.181 16.732 138.101 15.208 137.021 13.672C135.941 12.112 134.873 10.576 133.817 9.064H139.613L143.357 14.824ZM153.987 18.676C153.987 16.996 154.239 15.532 154.743 14.284C155.271 13.012 155.955 11.956 156.795 11.116C157.635 10.276 158.595 9.64 159.675 9.208C160.779 8.776 161.907 8.56 163.059 8.56C165.747 8.56 167.871 9.388 169.431 11.044C170.991 12.676 171.771 15.088 171.771 18.28C171.771 18.592 171.759 18.94 171.735 19.324C171.711 19.684 171.687 20.008 171.663 20.296H159.495C159.615 21.4 160.131 22.276 161.043 22.924C161.955 23.572 163.179 23.896 164.715 23.896C165.699 23.896 166.659 23.812 167.595 23.644C168.555 23.452 169.335 23.224 169.935 22.96L170.655 27.316C170.367 27.46 169.983 27.604 169.503 27.748C169.023 27.892 168.483 28.012 167.883 28.108C167.307 28.228 166.683 28.324 166.011 28.396C165.339 28.468 164.667 28.504 163.995 28.504C162.291 28.504 160.803 28.252 159.531 27.748C158.283 27.244 157.239 26.56 156.399 25.696C155.583 24.808 154.971 23.764 154.563 22.564C154.179 21.364 153.987 20.068 153.987 18.676ZM166.587 16.624C166.563 16.168 166.479 15.724 166.335 15.292C166.215 14.86 166.011 14.476 165.723 14.14C165.459 13.804 165.111 13.528 164.679 13.312C164.271 13.096 163.755 12.988 163.131 12.988C162.531 12.988 162.015 13.096 161.583 13.312C161.151 13.504 160.791 13.768 160.503 14.104C160.215 14.44 159.987 14.836 159.819 15.292C159.675 15.724 159.567 16.168 159.495 16.624H166.587ZM175.911 9.712C176.823 9.448 177.999 9.208 179.439 8.992C180.879 8.752 182.391 8.632 183.975 8.632C185.583 8.632 186.915 8.848 187.971 9.28C189.051 9.688 189.903 10.276 190.527 11.044C191.151 11.812 191.595 12.724 191.859 13.78C192.123 14.836 192.255 16.012 192.255 17.308V28H186.891V17.956C186.891 16.228 186.663 15.004 186.207 14.284C185.751 13.564 184.899 13.204 183.651 13.204C183.267 13.204 182.859 13.228 182.427 13.276C181.995 13.3 181.611 13.336 181.275 13.384V28H175.911V9.712ZM204.346 24.256C204.874 24.256 205.378 24.244 205.858 24.22C206.338 24.196 206.722 24.16 207.01 24.112V20.044C206.794 19.996 206.47 19.948 206.038 19.9C205.606 19.852 205.21 19.828 204.85 19.828C204.346 19.828 203.866 19.864 203.41 19.936C202.978 19.984 202.594 20.092 202.258 20.26C201.922 20.428 201.658 20.656 201.466 20.944C201.274 21.232 201.178 21.592 201.178 22.024C201.178 22.864 201.454 23.452 202.006 23.788C202.582 24.1 203.362 24.256 204.346 24.256ZM203.914 8.56C205.498 8.56 206.818 8.74 207.874 9.1C208.93 9.46 209.77 9.976 210.394 10.648C211.042 11.32 211.498 12.136 211.762 13.096C212.026 14.056 212.158 15.124 212.158 16.3V27.46C211.39 27.628 210.322 27.82 208.954 28.036C207.586 28.276 205.93 28.396 203.986 28.396C202.762 28.396 201.646 28.288 200.638 28.072C199.654 27.856 198.802 27.508 198.082 27.028C197.362 26.524 196.81 25.876 196.426 25.084C196.042 24.292 195.85 23.32 195.85 22.168C195.85 21.064 196.066 20.128 196.498 19.36C196.954 18.592 197.554 17.98 198.298 17.524C199.042 17.068 199.894 16.744 200.854 16.552C201.814 16.336 202.81 16.228 203.842 16.228C204.538 16.228 205.15 16.264 205.678 16.336C206.23 16.384 206.674 16.456 207.01 16.552V16.048C207.01 15.136 206.734 14.404 206.182 13.852C205.63 13.3 204.67 13.024 203.302 13.024C202.39 13.024 201.49 13.096 200.602 13.24C199.714 13.36 198.946 13.54 198.298 13.78L197.614 9.46C197.926 9.364 198.31 9.268 198.766 9.172C199.246 9.052 199.762 8.956 200.314 8.884C200.866 8.788 201.442 8.716 202.042 8.668C202.666 8.596 203.29 8.56 203.914 8.56Z" fill="black"/>
</svg>
